<?xml version="1.0" encoding="utf-8"?><svg viewBox="0 0 682 682" xmlns="http://www.w3.org/2000/svg" xmlns:xlink="http://www.w3.org/1999/xlink"><style>:root>svg{display:none}:root>svg:target{display:block}</style><svg viewBox="-48 0 496 496" id="business" xmlns="http://www.w3.org/2000/svg"><path d="M104 256h192c4.426 0 8-3.586 8-8V104C304 46.656 257.344 0 200 0S96 46.656 96 104v144c0 4.414 3.574 8 8 8zm8-152c0-48.52 39.48-88 88-88s88 39.48 88 88v136H112zm0 0"/><path d="M376 144h-48c-4.426 0-8 3.586-8 8v120H80V152c0-4.414-3.574-8-8-8H24c-13.23 0-24 10.77-24 24s10.77 24 24 24h8v96c0 17.648 14.352 32 32 32h100.688l-98.344 98.344a7.991 7.991 0 00-1.735 8.719A8.004 8.004 0 0072 432h16v17.473c-9.29 3.312-16 12.113-16 22.527 0 13.23 10.77 24 24 24s24-10.77 24-24c0-10.414-6.71-19.215-16-22.527V432h8c2.129 0 4.16-.84 5.656-2.344L176 371.312V424c0 4.414 3.574 8 8 8h8v17.473c-9.29 3.312-16 12.113-16 22.527 0 13.23 10.77 24 24 24s24-10.77 24-24c0-10.414-6.71-19.215-16-22.527V432h8c4.426 0 8-3.586 8-8v-52.688l58.344 58.344A7.964 7.964 0 00288 432h8v17.473c-9.29 3.312-16 12.113-16 22.527 0 13.23 10.77 24 24 24s24-10.77 24-24c0-10.414-6.71-19.215-16-22.527V432h16c3.23 0 6.16-1.953 7.39-4.938a7.991 7.991 0 00-1.734-8.718L235.312 320H336c17.648 0 32-14.352 32-32v-96h8c13.23 0 24-10.77 24-24s-10.77-24-24-24zM96 480c-4.414 0-8-3.594-8-8s3.586-8 8-8 8 3.594 8 8-3.586 8-8 8zm104 0c-4.414 0-8-3.594-8-8s3.586-8 8-8 8 3.594 8 8-3.586 8-8 8zm104 0c-4.414 0-8-3.594-8-8s3.586-8 8-8 8 3.594 8 8-3.586 8-8 8zM16 168c0-4.406 3.586-8 8-8h40v16H24c-4.414 0-8-3.594-8-8zm92.688 248H91.311L176 331.312v17.375zM208 416h-16v-96h16zm83.313 0L224 348.687v-17.375L308.688 416zM352 288c0 8.824-7.176 16-16 16H64c-8.824 0-16-7.176-16-16v-96h16v88c0 4.414 3.574 8 8 8h256c4.426 0 8-3.586 8-8v-88h16zm24-112h-40v-16h40c4.414 0 8 3.594 8 8s-3.586 8-8 8zm0 0"/><path d="M192 192h16v16h-16zm0 0M200 32c-30.871 0-56 25.121-56 56v16h16V88c0-22.055 17.945-40 40-40s40 17.945 40 40-17.945 40-40 40c-4.426 0-8 3.586-8 8v40h16v-32.566c27.105-3.899 48-27.266 48-55.434 0-30.879-25.129-56-56-56zm0 0"/></svg><svg viewBox="0 0 64 64" id="contract" xmlns="http://www.w3.org/2000/svg"><path d="M63 21.536A4.541 4.541 0 0058.464 17a4.504 4.504 0 00-3.207 1.329l-2.964 2.964L49 24.586V14.92c3.387-.488 6-3.401 6-6.92 0-3.86-3.14-7-7-7H8C4.14 1 1 4.14 1 8v50a1 1 0 001 1h5v3a1 1 0 001 1h40a1 1 0 001-1V37.414l9.707-9.707 1.027-1.027a13.399 13.399 0 01-3.683 6.855l-4.757 4.757 1.414 1.414 4.757-4.757c2.838-2.838 4.425-6.586 4.518-10.585A4.484 4.484 0 0063 21.536zm-6.329-1.793A2.52 2.52 0 0158.464 19 2.54 2.54 0 0161 21.536a2.52 2.52 0 01-.743 1.793L58 25.586 54.414 22zM53 23.414l1.086 1.086L41.5 37.086 40.414 36zM29.217 49.803l2.057-4.115 3.038 3.038-4.115 2.057zM32.414 44L39 37.414 42.586 41 36 47.586zM48 3c2.757 0 5 2.243 5 5s-2.243 5-5 5H12.89a6.977 6.977 0 000-10zM9 12.899V10c0-.551.449-1 1-1h2.899A5.016 5.016 0 019 12.899zM3 57V8c0-2.757 2.243-5 5-5a5.01 5.01 0 014.899 4H10c-1.654 0-3 1.346-3 3v47zm44 4H9V15h38v11.586L42.586 31H13v2h27.586l-2 2H13v2h23.586l-6.293 6.293a.98.98 0 00-.176.265l-.011-.006-3 6a1 1 0 00.188 1.154l.292.294-2.293 2.293 1.414 1.414L29 52.414l.293.293a1 1 0 001.154.188l6-3-.006-.011a.98.98 0 00.265-.176l8-8L47 39.414zm-3-21.414L42.914 38.5 55.5 25.914 56.586 27z"/><path d="M13 19h30v2H13zM13 23h30v2H13zM13 27h30v2H13zM13 51h11v2H13zM13 55h30v2H13z"/></svg><svg viewBox="0 0 414.4 414.4" id="diagram" xmlns="http://www.w3.org/2000/svg"><path d="M397.6 249.2h-32.8v-42.4c0-4.8-3.2-8-8-8H215.2v-34.4H248c9.6 0 16.8-7.2 16.8-16.8V66.8c0-9.6-7.2-16.8-16.8-16.8h-81.6c-9.6 0-16.8 7.2-16.8 16.8v81.6c0 9.6 7.2 16.8 16.8 16.8h32.8v33.6H57.6c-4.8 0-8 3.2-8 8v42.4H16.8C7.2 249.2 0 256.4 0 266v81.6c0 9.6 7.2 16.8 16.8 16.8h81.6c9.6 0 16.8-7.2 16.8-16.8V266c0-9.6-7.2-16.8-16.8-16.8H65.6v-34.4h133.6v34.4h-32.8c-9.6 0-16.8 7.2-16.8 16.8v81.6c0 9.6 7.2 16.8 16.8 16.8H248c9.6 0 16.8-7.2 16.8-16.8V266c0-9.6-7.2-16.8-16.8-16.8h-32.8v-34.4h133.6v34.4H316c-9.6 0-16.8 7.2-16.8 16.8v81.6c0 9.6 7.2 16.8 16.8 16.8h81.6c9.6 0 16.8-7.2 16.8-16.8V266c0-9.6-8-16.8-16.8-16.8zM99.2 266c-.8-.8 0-.8 0 0v81.6c0 .8 0 .8-.8.8H16.8c-.8 0-.8 0-.8-.8V266c0-.8 0-.8.8-.8l82.4.8zm149.6 0c-.8-.8 0-.8 0 0v81.6c0 .8 0 .8-.8.8h-81.6c-.8 0-.8 0-.8-.8V266c0-.8 0-.8.8-.8l82.4.8zm-83.2-118.4c.8.8 0 .8 0 0V66.8c0-.8 0-.8.8-.8H248c.8 0 .8 0 .8.8v81.6c0 .8 0 .8-.8.8l-82.4-1.6zm232.8 199.2c0 .8-.8.8 0 0l-82.4.8c-.8 0-.8 0-.8-.8V266c0-.8 0-.8.8-.8h81.6c.8 0 .8 0 .8.8v80.8z"/></svg><svg viewBox="0 0 155.139 155.139" id="facebook" xmlns="http://www.w3.org/2000/svg"><path d="M89.584 155.139V84.378h23.742l3.562-27.585H89.584V39.184c0-7.984 2.208-13.425 13.67-13.425l14.595-.006V1.08C115.325.752 106.661 0 96.577 0 75.52 0 61.104 12.853 61.104 36.452v20.341H37.29v27.585h23.814v70.761h28.48z"/></svg><svg viewBox="0 -1 511.999 511" id="fork" xmlns="http://www.w3.org/2000/svg"><path d="M380.59 204.04l30.082-1.907.16-.012c21.438-1.809 40.68-13.039 52.797-30.82l23.781-34.89c20.7-30.376 28.719-67.063 22.574-103.302a31.88 31.88 0 00-10.246-18.46 31.872 31.872 0 00-19.558-7.962c-36.727-1.757-72.176 10.606-99.848 34.797l-31.789 27.793c-16.2 14.16-25.043 34.61-24.27 56.114.004.05.004.105.008.16l1.715 30.09c.668 11.73-3.633 23.304-11.777 31.734L65.867 442.508c-6.648 6.933-10.082 16.445-9.664 26.785.461 11.383 5.684 22.562 13.973 29.91 7.488 6.637 17.781 10.418 28.07 10.418 1.102 0 2.203-.043 3.3-.133 10.317-.824 19.352-5.37 25.47-12.847L350.48 219.555c7.41-9.118 18.387-14.774 30.11-15.516zm-42.04 5.858L115.106 486.961c-3.414 4.172-8.664 6.742-14.78 7.23-7.278.582-14.74-1.84-19.966-6.472-5.226-4.637-8.523-11.754-8.816-19.047-.25-6.129 1.668-11.649 5.363-15.5l248.332-255.113c11.133-11.52 16.992-27.297 16.086-43.29l-1.715-30.011c-.582-16.832 6.352-32.836 19.036-43.926l31.789-27.793c24.671-21.566 56.289-32.578 89.015-31.023 3.727.18 7.313 1.64 10.106 4.117a16.47 16.47 0 015.297 9.539c5.476 32.308-1.672 65.012-20.125 92.09l-23.782 34.894c-9.488 13.922-24.547 22.723-41.328 24.164l-30 1.899c-15.984 1.015-30.945 8.726-41.066 21.18zm0 0"/><path d="M497.82 440.57L331.3 288.902a7.677 7.677 0 00-10.843.504 7.68 7.68 0 00.508 10.844L487.44 451.883c3.961 3.66 6.207 9.054 6.329 15.187.144 7.297-2.72 14.598-7.66 19.54-4.938 4.937-12.227 7.808-19.54 7.66-6.132-.122-11.527-2.368-15.148-6.286L303.039 325.078a7.677 7.677 0 00-10.844-.508 7.677 7.677 0 00-.504 10.844L440.11 498.36c6.524 7.055 15.813 11.055 26.16 11.258.27.004.536.008.805.008 11.121 0 22.242-4.512 29.887-12.16 7.836-7.836 12.379-19.309 12.152-30.695-.203-10.348-4.199-19.637-11.293-26.2zm0 0M92.61 202.586a71.071 71.071 0 0046.632 18.793l30.14.094c11.75.035 23.044 5.023 30.97 13.66l13.277 14.574a7.65 7.65 0 005.676 2.508 7.64 7.64 0 005.164-2 7.673 7.673 0 00.508-10.844l-13.297-14.594c-10.828-11.804-26.227-18.601-42.246-18.656l-30.059-.094a55.766 55.766 0 01-36.02-14.41L16.008 87.781a2.64 2.64 0 01.156-3.582c.672-.676 1.461-.773 1.871-.773s1.2.097 1.875.773l79.508 79.512c7.86 7.86 20.648 7.86 28.508-.004l9.344-9.34v-.004l16.59-16.59s.003 0 .003-.003l.004-.004 9.34-9.34c7.86-7.86 7.86-20.649 0-28.508L83.699 20.41a2.655 2.655 0 010-3.746 2.64 2.64 0 013.582-.156l103.836 87.351a55.74 55.74 0 0114.414 36.016l.09 30.063c.055 16.015 6.856 31.414 18.676 42.265l14.226 12.957a7.676 7.676 0 0010.844-.504 7.68 7.68 0 00-.508-10.844l-14.203-12.937c-8.66-7.945-13.644-19.242-13.683-30.988l-.094-30.14c0-.056 0-.11-.004-.165a71.071 71.071 0 00-18.79-46.473 7.67 7.67 0 00-.702-.675L97.16 4.762c-7.203-6.063-17.656-5.61-24.312 1.047-7.02 7.02-7.02 18.437 0 25.453l79.507 79.511a4.814 4.814 0 010 6.801l-3.917 3.914-88.614-88.61c-2.996-3-7.855-3-10.851 0a7.674 7.674 0 000 10.852l88.613 88.614-5.742 5.738-88.614-88.61a7.674 7.674 0 00-10.851 0c-3 2.997-3 7.856 0 10.852l88.61 88.614-3.915 3.917a4.814 4.814 0 01-6.8 0L30.761 73.348c-3.399-3.399-7.918-5.274-12.727-5.274S8.707 69.95 5.31 73.348c-6.657 6.656-7.106 17.109-1.047 24.316l87.675 104.219c.208.25.434.484.672.703zm0 0"/></svg><svg viewBox="0 0 502.664 502.664" id="icon" xmlns="http://www.w3.org/2000/svg"><g fill="#010002"><path d="M153.821 358.226L0 274.337v-46.463l153.821-83.414v54.574L46.636 250.523l107.185 53.431v54.272zM180.094 387.584L282.103 115.08h32.227L212.084 387.584h-31.99zM348.843 358.226v-54.272l107.164-52.999-107.164-52.59v-53.927l153.821 83.522v46.183l-153.821 84.083z"/></g></svg><svg viewBox="0 0 512 512" id="insta" xmlns="http://www.w3.org/2000/svg"><path d="M352 0H160C71.648 0 0 71.648 0 160v192c0 88.352 71.648 160 160 160h192c88.352 0 160-71.648 160-160V160C512 71.648 440.352 0 352 0zm112 352c0 61.76-50.24 112-112 112H160c-61.76 0-112-50.24-112-112V160C48 98.24 98.24 48 160 48h192c61.76 0 112 50.24 112 112v192z"/><path d="M256 128c-70.688 0-128 57.312-128 128s57.312 128 128 128 128-57.312 128-128-57.312-128-128-128zm0 208c-44.096 0-80-35.904-80-80 0-44.128 35.904-80 80-80s80 35.872 80 80c0 44.096-35.904 80-80 80z"/><circle cx="393.6" cy="118.4" r="17.056"/></svg><svg viewBox="0 0 511.999 511.999" id="manager" xmlns="http://www.w3.org/2000/svg"><path d="M241.227 378.889c-3.851-2.826-9.27-2.001-12.1 1.852l-1.069 1.455a8.656 8.656 0 001.842 12.094 8.617 8.617 0 005.128 1.689 8.64 8.64 0 006.968-3.514l1.085-1.475a8.658 8.658 0 00-1.854-12.101z"/><path d="M243.486 461.241l-22.263-40.482 20.786-28.31a8.655 8.655 0 00-1.854-12.101 8.653 8.653 0 00-12.1 1.855l-24.058 32.765a8.657 8.657 0 00-.608 9.295l24.928 45.321v-.001a8.657 8.657 0 0011.757 3.413 8.655 8.655 0 003.412-11.755zM308.004 414.969l-23.96-32.632a8.658 8.658 0 00-13.955 10.251l20.684 28.172-22.111 40.207a8.657 8.657 0 1015.171 8.349l24.778-45.05a8.658 8.658 0 00-.607-9.297zM321.721 278.932a8.657 8.657 0 00-8.938.535c-5.149 3.547-9.927 7.305-14.201 11.168-23.296 21.06-45.429 18.21-46.296 18.086a8.44 8.44 0 00-1.578-.103c-9.207.236-25.807-8.177-43.368-21.969a141.54 141.54 0 00-8.19-5.975 8.655 8.655 0 00-13.499 7.174v29.696a8.66 8.66 0 003.997 7.293l61.381 41.016c.01.006.019.014.029.021l.162.108a8.657 8.657 0 004.781 1.439 8.677 8.677 0 004.878-1.502l.088-.058a6.02 6.02 0 00.102-.068l61.236-40.919a8.655 8.655 0 004.046-7.327v-30.951a8.655 8.655 0 00-4.63-7.664zm-12.684 33.982L256 348.354l-53.036-35.441v-7.873c12.914 9.385 31.911 20.896 47.396 20.895h.101c5.199.575 31.712 2.138 58.578-21.43v8.409z"/><path d="M264.539 357.343a8.656 8.656 0 00-15.516-3.7l-19.897 27.101a8.655 8.655 0 001.855 12.101 8.61 8.61 0 005.116 1.68 8.65 8.65 0 006.986-3.536l19.793-26.958a8.644 8.644 0 001.663-6.688zM387.881 78.272c-.172-1.356-4.227-30.622-31.775-42.167.8-5.14.716-11.746-2.547-18.173-4.386-8.638-13.041-14.267-25.726-16.733a8.625 8.625 0 00-1.651-.159H209.995c-47.178 0-85.561 38.382-85.561 85.562v45.591c0 11.878 4.049 23.461 11.399 32.613 3.644 4.538 8.132 12.463 8.809 24.445a8.642 8.642 0 008.887 8.163 8.656 8.656 0 008.412-8.653v-59.44c5.878-24.309 25.939-29.04 29.388-29.679h37.582c4.421 0 8.768-.675 12.923-2.007 7.146-2.292 18.483-6.51 26.737-9.645a25.094 25.094 0 0117.213-.216l40.234 14.124c20.114 7.42 23.704 25.078 24.149 27.852v71.337a8.65 8.65 0 008.663 8.652 8.667 8.667 0 008.555-7.375c.034-.223 3.49-22.55 14.636-40.426 3.878-6.223 5.929-13.318 5.929-20.518V79.365c0-.365-.023-.73-.069-1.093zm-17.245 63.144c0 3.867-1.091 7.703-3.157 11.114v-23.372c0-.313-.017-.624-.051-.935-.136-1.257-3.713-30.923-35.498-42.599l-.117-.042-40.295-14.146a42.407 42.407 0 00-14.046-2.391c-5.108 0-10.213.921-15.05 2.761-11.556 4.39-20.505 7.621-25.876 9.343a24.98 24.98 0 01-7.636 1.181h-38.281c-.371 0-.743.024-1.112.071-1.465.19-35.992 5.1-44.681 44.045a8.662 8.662 0 00-.208 1.885v17.816a35.176 35.176 0 01-2.883-13.953v-45.59c0-37.632 30.617-68.249 68.248-68.249h115.315c4.774 1.017 10.576 3.104 12.777 7.35 2.695 5.197-.375 12.353-.378 12.359a8.656 8.656 0 005.809 12.095c22.038 5.305 26.533 26.442 27.119 29.861v61.396z"/><path d="M367.429 128.223c-.136-1.257-3.713-30.923-35.498-42.599l-.117-.042-40.295-14.146a42.451 42.451 0 00-29.097.368c-11.556 4.39-20.505 7.621-25.876 9.344a24.98 24.98 0 01-7.636 1.18h-38.281c-.371 0-.743.024-1.112.071-1.465.19-35.992 5.1-44.681 44.045a8.662 8.662 0 00-.208 1.885v74.416l.002.192c.057 2.585 1.886 63.632 44.066 91.551l.218.154c.181.128.362.256.551.383a124.829 124.829 0 017.182 5.241c12.288 9.649 35.445 25.67 53.713 25.67h.101c.992.109 2.763.255 5.165.255 10.353 0 32.441-2.713 54.565-22.713 3.713-3.355 7.888-6.637 12.414-9.755l.647-.453c.211-.149.422-.299.64-.445 14.07-9.45 38.438-33.834 43.554-90.968.023-.256.035-.515.035-.773v-71.926a9.155 9.155 0 00-.052-.935zm-17.263 72.47c-4.717 51.562-26.686 71.551-35.928 77.758-.328.221-.652.449-.976.677l-.48.338c-5.149 3.547-9.927 7.305-14.201 11.168-23.209 20.982-45.27 18.23-46.352 18.078a8.706 8.706 0 00-1.522-.093c-9.207.236-25.807-8.177-43.368-21.969-2.686-2.11-5.44-4.12-8.186-5.973l-.213-.15a23.764 23.764 0 00-.659-.457c-34.038-22.529-36.265-75.25-36.34-77.45v-73.3c5.899-24.398 26.084-29.075 29.374-29.679h37.596c4.421 0 8.768-.675 12.923-2.007 7.146-2.292 18.484-6.51 26.737-9.645a25.094 25.094 0 0117.213-.216l40.234 14.124c20.114 7.42 23.704 25.078 24.149 27.852v70.944zM263.742 354.898a8.66 8.66 0 00-7.01-4.755 8.677 8.677 0 00-7.711 3.503l-20.736 28.242a8.658 8.658 0 001.848 12.097 8.618 8.618 0 005.122 1.685 8.644 8.644 0 006.975-3.522l20.737-28.138c1.097-1.488 1.689-3.39 1.689-5.238a8.674 8.674 0 00-.914-3.874zM264.297 494.276a8.654 8.654 0 00-12.097-.405l-1.979 1.81a8.655 8.655 0 00-1.716 10.607l.061.109a8.655 8.655 0 0013.68 1.9l1.917-1.919a8.654 8.654 0 00.134-12.102z"/><path d="M261.779 495.681l-1.979-1.81a8.657 8.657 0 00-11.963 12.51l1.92 1.919a8.654 8.654 0 0013.71-1.958l.061-.109a8.66 8.66 0 00-1.749-10.552z"/><path d="M261.925 495.816l-.011-.01a8.66 8.66 0 00-11.814-.014l-.026.024a8.656 8.656 0 00-.27 12.534l.091.091a8.63 8.63 0 006.104 2.518 8.632 8.632 0 006.12-2.534l.091-.091a8.656 8.656 0 002.533-6.32 8.647 8.647 0 00-2.818-6.198zM258.808 350.389c-3.585-1.148-7.519.183-9.702 3.253-2.442 3.438-2.039 8.123.936 11.112a8.637 8.637 0 006.135 2.544c1.739 0 3.487-.52 4.995-1.582a8.654 8.654 0 003.675-7.079v-.021c0-3.767-2.45-7.082-6.039-8.227z"/><path d="M263.034 353.571l-.074-.1a8.655 8.655 0 00-15.617 5.146v.148c0 3.187 1.789 6.092 4.597 7.6a8.615 8.615 0 004.078 1.02c1.691 0 3.38-.49 4.832-1.452a8.651 8.651 0 002.184-12.362z"/><path d="M358.979 326.377a8.648 8.648 0 00-5.174-5.083l-33.191-11.898a8.649 8.649 0 00-7.735.95l-61.498 41.094-.051.034 4.829 7.18-4.937-7.107a8.655 8.655 0 00-3.76 8.646 8.658 8.658 0 001.561 3.701l45.025 61.321a8.653 8.653 0 0014.562-.953l49.857-90.648a8.651 8.651 0 00.512-7.237zm-59.003 77.659l-31.645-43.1 50.542-33.773 19.533 7.003-38.43 69.87z"/><path d="M264.529 357.274a8.656 8.656 0 00-3.704-5.696l-61.703-41.231a8.664 8.664 0 00-7.735-.95l-33.191 11.898a8.653 8.653 0 00-4.663 12.32l49.857 90.648a8.658 8.658 0 007.585 4.485 8.66 8.66 0 006.978-3.535l24.058-32.765.057-.079 20.911-28.481a8.658 8.658 0 001.55-6.614zm-36.472 24.924l-.062.084-15.973 21.755-38.43-69.871 19.534-7.002 50.541 33.773-15.61 21.261zM511.571 474.155l-11.167-67.433c-3.519-21.251-18.288-39.006-38.544-46.332l-108.034-39.086a8.656 8.656 0 00-10.691 12.004l22.556 45.234-22.133.341a8.655 8.655 0 00-7.535 12.672l9.078 17.333-92.903 84.987a8.76 8.76 0 00-.279.266l-1.918 1.918a8.656 8.656 0 00-1.473 10.274l.068.123a8.66 8.66 0 007.595 4.502h224.171a31.576 31.576 0 0024.128-11.175 31.578 31.578 0 007.081-25.628zm-20.283 14.431a14.302 14.302 0 01-10.925 5.06H278.097l83.611-76.484a8.652 8.652 0 001.826-10.403l-5.648-10.783 21.826-.336a8.657 8.657 0 007.614-12.519l-19.037-38.176 87.686 31.723c14.375 5.2 24.856 17.8 27.353 32.881l11.167 67.433v.001a14.299 14.299 0 01-3.207 11.603z"/><path d="M262 495.885l-.101-.091a8.658 8.658 0 00-11.948.314l-.09.091a8.657 8.657 0 006.139 14.76h.19a8.655 8.655 0 008.076-5.543 8.653 8.653 0 00-2.266-9.531z"/><path d="M261.728 495.635a8.646 8.646 0 00-7.24-2.099 8.653 8.653 0 00-6.141 4.37l-.06.109a8.657 8.657 0 001.369 10.183l.031.032a8.631 8.631 0 006.222 2.637c2.085 0 4.176-.75 5.832-2.263l.091-.082a8.653 8.653 0 001.91-2.526c1.743-3.483.881-7.757-2.014-10.361z"/><path d="M262.102 496.164l-.036-.037-.069-.069-1.92-1.918a6.9 6.9 0 00-.277-.265l-92.903-84.987 9.079-17.333a8.658 8.658 0 00-7.534-12.672l-22.135-.341 22.556-45.234c1.58-3.168 1.07-6.979-1.283-9.622s-6.081-3.588-9.408-2.382L50.139 360.39c-20.256 7.325-35.026 25.08-38.545 46.332L.427 474.155a31.58 31.58 0 007.083 25.629 31.586 31.586 0 0024.128 11.174H256a8.654 8.654 0 006.102-14.794zm-230.463-2.518a14.295 14.295 0 01-10.924-5.06 14.302 14.302 0 01-3.206-11.604l11.167-67.433a42.36 42.36 0 0127.353-32.881l87.685-31.723-19.036 38.174a8.654 8.654 0 00.351 8.362 8.652 8.652 0 007.263 4.157l21.826.337-5.648 10.783a8.656 8.656 0 001.825 10.403l83.611 76.485H31.639z"/><path d="M285.464 389.557a8.657 8.657 0 00-1.421-7.224l-21.066-28.689c-2.214-3.016-6.118-4.215-9.672-3.049a8.632 8.632 0 00-4.552 3.522l-20.681 28.061a8.66 8.66 0 00-.144 10.094l8.807 12.647-9.382 59.137a8.661 8.661 0 00.965 5.528l20.098 36.541a8.656 8.656 0 0015.17 0l20.248-36.812a8.665 8.665 0 001.071-4.171v-.005c0-.454-.037-.908-.107-1.357l-9.339-58.86 8.712-12.508a8.758 8.758 0 001.293-2.855zm-29.463 94.435l-11.085-20.153 9.464-59.649a8.652 8.652 0 00-1.446-6.303l-7.254-10.418 10.346-14.038 10.4 14.164-7.167 10.292a8.656 8.656 0 00-1.446 6.303l9.421 59.377-11.233 20.425z"/></svg><svg viewBox="0 0 512 512" id="paper" xmlns="http://www.w3.org/2000/svg"><path d="M507.786 64.62c-.304-.286-60.445-57.641-60.445-57.641-2.299-2.206-4.677-4.486-9.117-4.486h-242.12c-7.072 0-12.826 5.753-12.826 12.825v39.383L97.943 69.329c-6.84 1.2-11.44 7.746-10.255 14.579l4.331 25.252c-27.737 9.334-56.214 18.956-83.705 28.831-6.496 2.375-9.905 9.598-7.587 16.133L55.412 306.14a7.503 7.503 0 007.058 4.964 7.5 7.5 0 007.057-10.041L15.651 151.295c25.9-9.273 52.722-18.349 78.935-27.172l25.771 150.245L150.011 447.4c1.071 6.108 6.44 10.454 12.5 10.454.686 0 1.382-.056 2.08-.171l80.316-13.783 62.76-10.758-94.391 33.927-74.435 26.763-57.808-160.789a7.5 7.5 0 10-14.115 5.075l58.628 163.074c1.875 5.128 6.733 8.316 11.868 8.316 1.419 0 2.86-.244 4.264-.757l76.671-27.566 174.094-62.574 33.259-5.701h73.471c7.072 0 12.826-5.766 12.826-12.854V73.071c.001-4.489-2.435-6.779-4.213-8.451zm-19.871 1.776h-37.53l-.93.004c-1.797.012-6.004.043-7.071-1.017-.246-.245-.534-1.063-.534-2.582l-.087-40.415zM497 397.908H198.278V251.741a7.5 7.5 0 00-15 0v148.313c0 7.087 5.754 12.854 12.826 12.854h140.812l-94.545 16.206-77.982 13.383-29.248-170.665-32.269-188.13 80.405-13.783v147.022a7.5 7.5 0 0015 0V17.492h228.475l.098 45.326c0 5.494 1.671 9.938 4.966 13.21 5.063 5.027 12.22 5.377 16.663 5.377.382 0 .744-.003 1.083-.005L497 81.397z"/><path d="M234.43 118.949a7.5 7.5 0 007.5 7.5h214.436a7.5 7.5 0 000-15H241.93a7.5 7.5 0 00-7.5 7.5zM456.366 164.731H241.93a7.5 7.5 0 000 15h214.436a7.5 7.5 0 000-15zM456.366 218.013H241.93a7.5 7.5 0 000 15h214.436a7.5 7.5 0 000-15zM456.366 271.295H241.93a7.5 7.5 0 000 15h214.436a7.5 7.5 0 000-15zM456.366 324.578H241.93a7.5 7.5 0 000 15h214.436a7.5 7.5 0 000-15z"/></svg><svg viewBox="0 0 512 512" id="team" xmlns="http://www.w3.org/2000/svg"><path d="M504.5 401.214a7.5 7.5 0 007.5-7.5V382.22a47.833 47.833 0 00-32.926-45.514l-46.877-15.424v-16.23c16.323-9.793 27.274-27.66 27.274-48.041v-32.325c0-30.872-25.116-55.988-55.988-55.988-18.184 0-34.365 8.72-44.599 22.191-5.665-10.631-15.272-18.922-27.299-22.872l-46.872-15.432v-16.23c16.323-9.793 27.274-27.66 27.274-48.041V55.988C311.988 25.116 286.872 0 256 0s-55.988 25.116-55.988 55.988v32.325c0 20.381 10.951 38.248 27.274 48.041v16.23l-46.867 15.431c-12.03 3.952-21.638 12.243-27.303 22.874-10.234-13.472-26.415-22.191-44.599-22.191-30.872 0-55.988 25.116-55.988 55.988v32.325c0 20.381 10.951 38.248 27.274 48.041v16.23l-46.881 15.425A47.832 47.832 0 000 382.22v11.494c0 4.142 3.357 7.5 7.5 7.5s7.5-3.358 7.5-7.5V382.22a32.86 32.86 0 0122.613-31.266l43.911-14.449c4.013 11.025 14.597 18.919 26.992 18.919 12.394 0 22.978-7.895 26.991-18.919l43.905 14.447a32.814 32.814 0 0120.53 19.737l-19.528 6.427a47.816 47.816 0 00-32.931 45.505v8.717H57.427v-18.765c0-4.142-3.357-7.5-7.5-7.5s-7.5 3.358-7.5 7.5v18.765H15v-2.59c0-4.142-3.357-7.5-7.5-7.5s-7.5 3.358-7.5 7.5v10.09a7.5 7.5 0 007.5 7.5h139.983v58.16a7.5 7.5 0 007.5 7.5h202.033a7.5 7.5 0 007.5-7.5V494.48c0-4.142-3.357-7.5-7.5-7.5s-7.5 3.358-7.5 7.5V497H322.09v-44.018c0-4.142-3.357-7.5-7.5-7.5s-7.5 3.358-7.5 7.5V497H204.91v-44.018c0-4.142-3.357-7.5-7.5-7.5s-7.5 3.358-7.5 7.5V497h-27.427v-74.377a32.843 32.843 0 0122.62-31.257l43.906-14.45c4.014 11.023 14.597 18.917 26.991 18.917s22.977-7.893 26.991-18.917l43.906 14.45a32.844 32.844 0 0122.62 31.257v36.842c0 4.142 3.357 7.5 7.5 7.5s7.5-3.358 7.5-7.5V446.34H504.5a7.5 7.5 0 007.5-7.5v-10.09c0-4.142-3.357-7.5-7.5-7.5s-7.5 3.358-7.5 7.5v2.59h-27.427v-18.765c0-4.142-3.357-7.5-7.5-7.5s-7.5 3.358-7.5 7.5v18.765h-90.057v-8.717a47.815 47.815 0 00-32.931-45.505l-19.528-6.427a32.816 32.816 0 0120.526-19.736l43.909-14.448c4.013 11.024 14.597 18.919 26.991 18.919 12.395 0 22.979-7.895 26.992-18.919l43.907 14.448A32.856 32.856 0 01497 382.22v11.494a7.5 7.5 0 007.5 7.5zM403.483 183.697c22.601 0 40.988 18.387 40.988 40.988v32.325c0 22.601-18.388 40.988-40.988 40.988s-40.987-18.387-40.987-40.988v-32.325c0-22.601 18.387-40.988 40.987-40.988zM215.012 88.313V55.988C215.012 33.387 233.399 15 256 15s40.988 18.387 40.988 40.988v32.325c0 22.601-18.388 40.988-40.988 40.988s-40.988-18.387-40.988-40.988zM256 144.301c4.73 0 9.323-.595 13.714-1.705v15.217c-.002.071-.001.141 0 .211-.006 7.557-6.155 13.703-13.713 13.703s-13.708-6.146-13.713-13.703v-15.428A55.907 55.907 0 00256 144.301zm-70.895 37.963l43.903-14.455c4.013 11.024 14.597 18.918 26.991 18.918s22.978-7.894 26.991-18.918l43.908 14.456c12.537 4.118 21.231 15.097 22.446 28.149a55.85 55.85 0 00-1.85 14.271v32.325c0 1.9.097 3.778.283 5.63h-35.853c-1.288-29.738-25.876-53.537-55.926-53.537s-54.638 23.799-55.926 53.537h-35.853c.186-1.852.283-3.73.283-5.63v-32.325c0-4.931-.647-9.712-1.85-14.271 1.217-13.051 9.912-24.03 22.453-28.15zM256 338.404c-22.601 0-40.988-18.387-40.988-40.988v-32.325c0-22.601 18.388-40.988 40.988-40.988s40.988 18.387 40.988 40.988v32.325c0 22.601-18.387 40.988-40.988 40.988zM67.528 257.01v-32.325c0-22.601 18.388-40.988 40.988-40.988s40.987 18.387 40.987 40.988v32.325c0 22.601-18.387 40.988-40.987 40.988s-40.988-18.387-40.988-40.988zm54.701 69.701c0 7.562-6.151 13.713-13.713 13.713s-13.714-6.152-13.714-13.713v-15.418a55.875 55.875 0 0013.714 1.705c4.73 0 9.323-.595 13.713-1.705zm61.875 9.995l-46.874-15.424v-16.231c10.489-6.293 18.748-15.924 23.319-27.411h39.463v19.776c0 20.381 10.951 38.248 27.274 48.041v16.233l-13.099 4.311a47.763 47.763 0 00-30.083-29.295zM256 380.832c-7.562 0-13.714-6.152-13.714-13.714v-.091V351.7c4.39 1.11 8.983 1.705 13.714 1.705s9.323-.595 13.714-1.705v15.418c0 7.562-6.152 13.714-13.714 13.714zm71.893-44.125a47.757 47.757 0 00-30.079 29.295l-13.1-4.311v-16.233c16.323-9.793 27.274-27.66 27.274-48.041V277.64h39.463a56.301 56.301 0 0023.319 27.411v16.231zm75.59 3.718c-7.562 0-13.713-6.152-13.713-13.713v-15.418c4.39 1.11 8.983 1.705 13.713 1.705s9.323-.595 13.714-1.705v15.418c0 7.561-6.152 13.713-13.714 13.713z"/></svg><svg viewBox="-21 -117 682.667 682" id="youtube" xmlns="http://www.w3.org/2000/svg"><path d="M626.813 64.035c-7.375-27.418-28.993-49.031-56.407-56.414C520.324-6.082 319.992-6.082 319.992-6.082s-200.324 0-250.406 13.184c-26.887 7.375-49.031 29.52-56.406 56.933C0 114.113 0 217.97 0 217.97s0 104.379 13.18 153.933c7.382 27.414 28.992 49.028 56.41 56.41C120.195 442.02 320 442.02 320 442.02s200.324 0 250.406-13.184c27.418-7.379 49.032-28.992 56.414-56.406 13.176-50.082 13.176-153.934 13.176-153.934s.527-104.383-13.183-154.46zM256.21 313.915V122.022l166.586 95.946zm0 0"/></svg></svg>